<svg xmlns="http://www.w3.org/2000/svg" xmlns:xlink="http://www.w3.org/1999/xlink" version="1.1" data-diagram-type="DESCRIPTION" style="width:914px;height:1194px;background:#FFFFFF;" width="914px" height="1194px" viewBox="0 0 914 1194" zoomAndPan="magnify" preserveAspectRatio="none" contentStyleType="text/css"><?plantuml 1.2026.8?><defs/><g font-family="sans-serif" lengthAdjust="spacing"><g class="title" data-source-line="1"><text x="395.643" y="23.535" fill="#000" font-size="14" textLength="116.505" font-weight="700">Cas d'utilisation</text></g><!--cluster Planets API--><g class="cluster" data-qualified-name="Planets API" id="ent0004" data-source-line="10"><rect x="308.84" y="44.488" width="591.95" height="1136" fill="none" style="stroke:#181818;stroke-width:1;" rx="2.5" ry="2.5"/><text x="564.562" y="60.023" fill="#000" font-size="14" textLength="80.507" font-weight="700">Planets API</text></g><!--cluster Accès public--><g class="cluster" data-qualified-name="Planets API.Acc.s public" id="ent0005" data-source-line="11"><path d="M335.34,546.488 L426.588,546.488 A3.75,3.75 0 0 1 429.088,548.988 L436.088,568.977 L608.89,568.977 A2.5,2.5 0 0 1 611.39,571.477 L611.39,1153.988 A2.5,2.5 0 0 1 608.89,1156.488 L335.34,1156.488 A2.5,2.5 0 0 1 332.84,1153.988 L332.84,548.988 A2.5,2.5 0 0 1 335.34,546.488" style="stroke:#000;stroke-width:1.5;" fill="none"/><line x1="332.84" y1="568.977" x2="436.088" y2="568.977" style="stroke:#000;stroke-width:1.5;"/><text x="336.84" y="562.023" fill="#000" font-size="14" textLength="90.248" font-weight="700">Accès public</text></g><!--cluster Accès privé--><g class="cluster" data-qualified-name="Planets API.Acc.s priv." id="ent0013" data-source-line="21"><path d="M336.85,87.488 L420.496,87.488 A3.75,3.75 0 0 1 422.996,89.988 L429.996,109.977 L874.29,109.977 A2.5,2.5 0 0 1 876.79,112.477 L876.79,519.988 A2.5,2.5 0 0 1 874.29,522.488 L336.85,522.488 A2.5,2.5 0 0 1 334.35,519.988 L334.35,89.988 A2.5,2.5 0 0 1 336.85,87.488" style="stroke:#000;stroke-width:1.5;" fill="none"/><line x1="334.35" y1="109.977" x2="429.996" y2="109.977" style="stroke:#000;stroke-width:1.5;"/><text x="338.35" y="103.023" fill="#000" font-size="14" textLength="82.646" font-weight="700">Accès privé</text></g><!--entity UC1--><g class="entity" data-qualified-name="Planets API.Acc.s public.UC1" id="ent0006" data-source-line="12"><ellipse cx="472.11" cy="607.488" rx="119.6" ry="26.32" fill="#F1F1F1" style="stroke:#181818;stroke-width:0.5;"/><text x="369.923" y="609.245" fill="#000" font-size="14" textLength="204.374">Consulter la liste des planètes</text><text x="429.991" y="625.734" fill="#000" font-size="14" textLength="84.239">(filtrer, trier)</text></g><!--entity UC2--><g class="entity" data-qualified-name="Planets API.Acc.s public.UC2" id="ent0007" data-source-line="13"><ellipse cx="472.114" cy="695.487" rx="120.544" ry="26.509" fill="#F1F1F1" style="stroke:#181818;stroke-width:0.5;"/><text x="362.035" y="700.231" fill="#000" font-size="14" textLength="220.158">Consulter le détail d'une planète</text></g><!--entity UC3--><g class="entity" data-qualified-name="Planets API.Acc.s public.UC3" id="ent0008" data-source-line="14"><ellipse cx="472.105" cy="784.483" rx="123.275" ry="27.055" fill="#F1F1F1" style="stroke:#181818;stroke-width:0.5;"/><text x="359.114" y="789.227" fill="#000" font-size="14" textLength="225.982">Consulter les lunes d'une planète</text></g><!--entity UC4--><g class="entity" data-qualified-name="Planets API.Acc.s public.UC4" id="ent0009" data-source-line="15"><ellipse cx="472.113" cy="872.488" rx="95.073" ry="25.449" fill="#F1F1F1" style="stroke:#181818;stroke-width:0.5;"/><text x="415.696" y="867.735" fill="#000" font-size="14" textLength="112.834">Estimer un trajet</text><text x="404.489" y="884.223" fill="#000" font-size="14" textLength="135.249">entre deux planètes</text></g><!--entity UC5--><g class="entity" data-qualified-name="Planets API.Acc.s public.UC5" id="ent0010" data-source-line="16"><ellipse cx="472.11" cy="957.49" rx="109.66" ry="24.332" fill="#F1F1F1" style="stroke:#181818;stroke-width:0.5;"/><text x="373.737" y="962.234" fill="#000" font-size="14" textLength="196.745">Consulter le contrat OpenAPI</text></g><!--entity UC6--><g class="entity" data-qualified-name="Planets API.Acc.s public.UC6" id="ent0011" data-source-line="17"><ellipse cx="472.112" cy="1036.487" rx="84.792" ry="19.358" fill="#F1F1F1" style="stroke:#181818;stroke-width:0.5;"/><text x="401.466" y="1041.231" fill="#000" font-size="14" textLength="141.292">Vérifier l'état de l'API</text></g><!--entity UC7--><g class="entity" data-qualified-name="Planets API.Acc.s public.UC7" id="ent0012" data-source-line="18"><ellipse cx="472.105" cy="1115.492" rx="82.235" ry="25.113" fill="#F1F1F1" style="stroke:#181818;stroke-width:0.5;"/><text x="427.313" y="1110.239" fill="#000" font-size="14" textLength="89.585">S'authentifier</text><text x="413.026" y="1126.727" fill="#000" font-size="14" textLength="118.159">(token ou cookie)</text></g><!--entity UC8--><g class="entity" data-qualified-name="Planets API.Acc.s priv..UC8" id="ent0014" data-source-line="22"><ellipse cx="472.11" cy="148.49" rx="120.36" ry="26.472" fill="#F1F1F1" style="stroke:#181818;stroke-width:0.5;"/><text x="368.617" y="150.41" fill="#000" font-size="14" textLength="206.985">Consulter la liste des missions</text><text x="429.99" y="166.899" fill="#000" font-size="14" textLength="84.239">(filtrer, trier)</text></g><!--entity UC9--><g class="entity" data-qualified-name="Planets API.Acc.s priv..UC9" id="ent0015" data-source-line="23"><ellipse cx="472.107" cy="339.492" rx="121.767" ry="26.753" fill="#F1F1F1" style="stroke:#181818;stroke-width:0.5;"/><text x="360.723" y="344.236" fill="#000" font-size="14" textLength="222.77">Consulter le détail d'une mission</text></g><!--entity UC10--><g class="entity" data-qualified-name="Planets API.Acc.s priv..UC10" id="ent0016" data-source-line="24"><ellipse cx="472.112" cy="252.488" rx="103.202" ry="25.65" fill="#F1F1F1" style="stroke:#181818;stroke-width:0.5;"/><text x="408.213" y="248.03" fill="#000" font-size="14" textLength="127.798">Filtrer les missions</text><text x="399.17" y="264.518" fill="#000" font-size="14" textLength="145.886">selon sa participation</text></g><!--entity UC11--><g class="entity" data-qualified-name="Planets API.Acc.s priv..UC11" id="ent0017" data-source-line="25"><ellipse cx="472.109" cy="420.49" rx="82.209" ry="18.842" fill="#F1F1F1" style="stroke:#181818;stroke-width:0.5;"/><text x="404.471" y="425.234" fill="#000" font-size="14" textLength="135.276">Consulter son profil</text></g><!--entity UC12--><g class="entity" data-qualified-name="Planets API.Acc.s priv..UC12" id="ent0018" data-source-line="26"><ellipse cx="472.108" cy="490.492" rx="69.068" ry="16.214" fill="#F1F1F1" style="stroke:#181818;stroke-width:0.5;"/><text x="420.476" y="495.236" fill="#000" font-size="14" textLength="103.264">Se déconnecter</text></g><!--entity UC13--><g class="entity" data-qualified-name="Planets API.Acc.s priv..UC13" id="ent0019" data-source-line="27"><ellipse cx="789.589" cy="339.488" rx="71.199" ry="16.64" fill="#F1F1F1" style="stroke:#181818;stroke-width:0.5;"/><text x="735.257" y="344.232" fill="#000" font-size="14" textLength="108.664">Vérifier le token</text></g><!--entity Visiteur--><g class="entity" data-qualified-name="Visiteur" id="ent0001" data-source-line="5"><ellipse cx="62.311" cy="786.498" rx="8" ry="8" fill="#F1F1F1" style="stroke:#181818;stroke-width:0.5;"/><path d="M62.311,794.498 L62.311,821.498 M49.311,802.498 L75.311,802.498 M62.311,821.498 L49.311,836.498 M62.311,821.498 L75.311,836.498" style="stroke:#181818;stroke-width:0.5;" fill="none"/><text x="6" y="851.533" fill="#000" font-size="14" textLength="51.837">Visiteur</text><text x="6" y="868.022" fill="#000" font-size="14" textLength="112.622">(non authentifié)</text></g><!--entity Astronaute--><g class="entity" data-qualified-name="Astronaute" id="ent0002" data-source-line="6"><ellipse cx="220.728" cy="382.498" rx="8" ry="8" fill="#F1F1F1" style="stroke:#181818;stroke-width:0.5;"/><path d="M220.728,390.498 L220.728,417.498 M207.728,398.498 L233.728,398.498 M220.728,417.498 L207.728,432.498 M220.728,417.498 L233.728,432.498" style="stroke:#181818;stroke-width:0.5;" fill="none"/><text x="179.62" y="447.533" fill="#000" font-size="14" textLength="74.505">Astronaute</text><text x="179.62" y="464.022" fill="#000" font-size="14" textLength="82.216">(authentifié)</text></g><!--reverse link Visiteur to Astronaute--><g class="link" data-entity-1="ent0001" data-entity-2="ent0002" id="lnk3" data-source-line="8" data-link-type="extension"><path d="M86.651,760.734 C103.631,714.544 124.34,658.918 148.62,596.488 C165.71,552.568 185.89,502.798 200.38,467.418" style="stroke:#181818;stroke-width:1;" fill="none" id="Visiteur-backto-Astronaute"/><polygon points="80.44,777.628,92.282,762.804,81.019,758.663,80.44,777.628" fill="none" style="stroke:#181818;stroke-width:1;stroke-linejoin:miter;stroke-miterlimit:10;"/></g><!--link Visiteur to UC1--><g class="link" data-entity-1="ent0001" data-entity-2="ent0006" id="lnk20" data-source-line="31" data-link-type="dependency"><path d="M115.24,777.628 C161.04,738.618 231.15,684.328 300.84,651.488 C325.42,639.908 348.643,632.285 374.803,625.665" style="stroke:#181818;stroke-width:1;" fill="none" id="Visiteur-to-UC1"/><polygon points="379.65,624.438,369.944,622.768,374.803,625.665,371.906,630.524,379.65,624.438" fill="#181818" style="stroke:#181818;stroke-width:1;stroke-linejoin:miter;stroke-miterlimit:10;"/></g><!--link Visiteur to UC2--><g class="link" data-entity-1="ent0001" data-entity-2="ent0007" id="lnk21" data-source-line="32" data-link-type="dependency"><path d="M118.67,801.908 C128.6,797.998 138.89,794.058 148.62,790.488 C215.61,765.938 232.43,759.758 300.84,739.488 C329.67,730.948 356.685,723.692 384.965,716.492" style="stroke:#181818;stroke-width:1;" fill="none" id="Visiteur-to-UC2"/><polygon points="389.81,715.258,380.101,713.602,384.965,716.492,382.075,721.355,389.81,715.258" fill="#181818" style="stroke:#181818;stroke-width:1;stroke-linejoin:miter;stroke-miterlimit:10;"/></g><!--link Visiteur to UC3--><g class="link" data-entity-1="ent0001" data-entity-2="ent0008" id="lnk22" data-source-line="33" data-link-type="dependency"><path d="M118.73,819.048 C180.15,813.028 275.834,803.647 353.874,795.987" style="stroke:#181818;stroke-width:1;" fill="none" id="Visiteur-to-UC3"/><polygon points="358.85,795.498,349.502,792.397,353.874,795.987,350.284,800.358,358.85,795.498" fill="#181818" style="stroke:#181818;stroke-width:1;stroke-linejoin:miter;stroke-miterlimit:10;"/></g><!--link Visiteur to UC4--><g class="link" data-entity-1="ent0001" data-entity-2="ent0009" id="lnk23" data-source-line="34" data-link-type="dependency"><path d="M118.73,831.008 C187.11,839.058 299.194,852.254 379.494,861.704" style="stroke:#181818;stroke-width:1;" fill="none" id="Visiteur-to-UC4"/><polygon points="384.46,862.288,375.989,857.264,379.494,861.704,375.054,865.209,384.46,862.288" fill="#181818" style="stroke:#181818;stroke-width:1;stroke-linejoin:miter;stroke-miterlimit:10;"/></g><!--link Visiteur to UC5--><g class="link" data-entity-1="ent0001" data-entity-2="ent0010" id="lnk24" data-source-line="35" data-link-type="dependency"><path d="M118.77,847.988 C166.48,867.648 237.42,895.608 300.84,915.488 C330.62,924.828 358.986,932.258 388.126,939.208" style="stroke:#181818;stroke-width:1;" fill="none" id="Visiteur-to-UC5"/><polygon points="392.99,940.368,385.164,934.389,388.126,939.208,383.308,942.171,392.99,940.368" fill="#181818" style="stroke:#181818;stroke-width:1;stroke-linejoin:miter;stroke-miterlimit:10;"/></g><!--link Visiteur to UC6--><g class="link" data-entity-1="ent0001" data-entity-2="ent0011" id="lnk25" data-source-line="36" data-link-type="dependency"><path d="M113.48,871.428 C158.97,911.418 229.63,967.378 300.84,999.488 C330.9,1013.048 361.31,1020.879 391.97,1026.419" style="stroke:#181818;stroke-width:1;" fill="none" id="Visiteur-to-UC6"/><polygon points="396.89,1027.308,388.745,1021.772,391.97,1026.419,387.322,1029.644,396.89,1027.308" fill="#181818" style="stroke:#181818;stroke-width:1;stroke-linejoin:miter;stroke-miterlimit:10;"/></g><!--link Visiteur to UC7--><g class="link" data-entity-1="ent0001" data-entity-2="ent0012" id="lnk26" data-source-line="37" data-link-type="dependency"><path d="M90.72,871.208 C112.25,905.638 144.42,952.388 179.62,987.488 C226.39,1034.128 240.78,1045.988 300.84,1073.488 C331.57,1087.558 362.767,1096.297 393.797,1102.837" style="stroke:#181818;stroke-width:1;" fill="none" id="Visiteur-to-UC7"/><polygon points="398.69,1103.868,390.708,1098.098,393.797,1102.837,389.059,1105.926,398.69,1103.868" fill="#181818" style="stroke:#181818;stroke-width:1;stroke-linejoin:miter;stroke-miterlimit:10;"/></g><!--link Astronaute to UC8--><g class="link" data-entity-1="ent0002" data-entity-2="ent0014" id="lnk27" data-source-line="39" data-link-type="dependency"><path d="M227.71,373.588 C236.13,326.198 255.83,253.838 300.84,209.488 C322.09,188.548 346.254,176.29 374.234,167.22" style="stroke:#181818;stroke-width:1;" fill="none" id="Astronaute-to-UC8"/><polygon points="378.99,165.678,369.195,164.648,374.234,167.22,371.662,172.259,378.99,165.678" fill="#181818" style="stroke:#181818;stroke-width:1;stroke-linejoin:miter;stroke-miterlimit:10;"/></g><!--link Astronaute to UC9--><g class="link" data-entity-1="ent0002" data-entity-2="ent0015" id="lnk28" data-source-line="40" data-link-type="dependency"><path d="M262.25,400.468 C274.47,394.858 288.05,389.048 300.84,384.488 C328.34,374.678 354.178,367.165 381.838,360.045" style="stroke:#181818;stroke-width:1;" fill="none" id="Astronaute-to-UC9"/><polygon points="386.68,358.798,376.967,357.168,381.838,360.045,378.961,364.916,386.68,358.798" fill="#181818" style="stroke:#181818;stroke-width:1;stroke-linejoin:miter;stroke-miterlimit:10;"/></g><!--link Astronaute to UC11--><g class="link" data-entity-1="ent0002" data-entity-2="ent0017" id="lnk29" data-source-line="41" data-link-type="dependency"><path d="M262.07,420.488 C296.4,420.488 341.78,420.488 384.48,420.488" style="stroke:#181818;stroke-width:1;" fill="none" id="Astronaute-to-UC11"/><polygon points="389.48,420.488,380.48,416.488,384.48,420.488,380.48,424.488,389.48,420.488" fill="#181818" style="stroke:#181818;stroke-width:1;stroke-linejoin:miter;stroke-miterlimit:10;"/></g><!--link Astronaute to UC12--><g class="link" data-entity-1="ent0002" data-entity-2="ent0018" id="lnk30" data-source-line="42" data-link-type="dependency"><path d="M262.08,441.008 C274.3,446.628 287.91,452.318 300.84,456.488 C336.99,468.148 373.868,475.744 407.018,481.284" style="stroke:#181818;stroke-width:1;" fill="none" id="Astronaute-to-UC12"/><polygon points="411.95,482.108,403.732,476.679,407.018,481.284,402.414,484.57,411.95,482.108" fill="#181818" style="stroke:#181818;stroke-width:1;stroke-linejoin:miter;stroke-miterlimit:10;"/></g><!--link UC10 to UC8--><g class="link" data-entity-1="ent0016" data-entity-2="ent0014" id="lnk31" data-source-line="44" data-link-type="dependency"><path d="M472.11,226.508 C472.11,210.868 472.11,195.998 472.11,180.218" style="stroke:#181818;stroke-width:1;stroke-dasharray:7,7;" fill="none" id="UC10-to-UC8"/><polygon points="472.11,175.218,468.11,184.218,472.11,180.218,476.11,184.218,472.11,175.218" fill="#181818" style="stroke:#181818;stroke-width:1;stroke-linejoin:miter;stroke-miterlimit:10;"/><text x="432.11" y="205.967" fill="#000" font-size="13" textLength="57.192">«extend»</text></g><!--link UC8 to UC13--><g class="link" data-entity-1="ent0014" data-entity-2="ent0019" id="lnk32" data-source-line="45" data-link-type="dependency"><path d="M537.47,171.138 C563.62,181.408 593.68,194.588 619.39,209.488 C679.01,244.028 737.576,293.683 767.196,320.063" style="stroke:#181818;stroke-width:1;stroke-dasharray:7,7;" fill="none" id="UC8-to-UC13"/><polygon points="770.93,323.388,766.869,314.415,767.196,320.063,761.549,320.39,770.93,323.388" fill="#181818" style="stroke:#181818;stroke-width:1;stroke-linejoin:miter;stroke-miterlimit:10;"/><text x="628.39" y="211.917" fill="#000" font-size="13" textLength="59.357">«include»</text></g><!--link UC9 to UC13--><g class="link" data-entity-1="ent0015" data-entity-2="ent0019" id="lnk33" data-source-line="46" data-link-type="dependency"><path d="M594.18,339.488 C636.06,339.488 676.58,339.488 713.05,339.488" style="stroke:#181818;stroke-width:1;stroke-dasharray:7,7;" fill="none" id="UC9-to-UC13"/><polygon points="718.05,339.488,709.05,335.488,713.05,339.488,709.05,343.488,718.05,339.488" fill="#181818" style="stroke:#181818;stroke-width:1;stroke-linejoin:miter;stroke-miterlimit:10;"/><text x="628.39" y="336.057" fill="#000" font-size="13" textLength="59.357">«include»</text></g><!--link UC11 to UC13--><g class="link" data-entity-1="ent0017" data-entity-2="ent0019" id="lnk34" data-source-line="47" data-link-type="dependency"><path d="M528.7,406.518 C556.03,399.628 589.45,391.168 619.39,383.488 C660.4,372.968 702.122,362.112 736.002,353.262" style="stroke:#181818;stroke-width:1;stroke-dasharray:7,7;" fill="none" id="UC11-to-UC13"/><polygon points="740.84,351.998,731.121,350.403,736.002,353.262,733.143,358.143,740.84,351.998" fill="#181818" style="stroke:#181818;stroke-width:1;stroke-linejoin:miter;stroke-miterlimit:10;"/><text x="628.39" y="363.237" fill="#000" font-size="13" textLength="59.357">«include»</text></g><?plantuml-src ZLFDQXin4BxhAGPVt48TQZj_BiOGJ0izDH2QKoxgxjYPMf4MQLG2RTudVevziSxAkzdkEbjo4z_FwDFCY8aDmbe7oCUHoL3GJCugPN33m0uyRUyPSlAO7GYTiVCmkgL0ZD7VsNVMMT2Hxz4oRQZSln-1r6i4ZU4gi7TMT2YMOtbBAzLOOVbdCkamLGfjjn9vT6sqHHRZzTSH_5O0XSvsUYlCLPQLpm6A-CDGTk00Oi1C1s7NpePe63qO3V9UHiXHr5AkV6OCacv3XZtw3y2Uq1_oVLzF1-j8XNBFcapLH8iljMhZRDWOm8WXlEwRTtsV0zE3kAALNFedyfsL5legVdniyzVcq_-apPpuDCEt0crgNtASTHstvTxBV2h7k7gTB07AiTMVT_KtutQeMAq5knrQS56kSpl2feqNOdjIhytBqwzo_zPvFL08ie_3uxfyyxZgKhLlqVLzEHHFishl36XawOEMHtYcZ8hqQvf5-JXqTH1JuPq4RgIzfRf9sMG-LXOTVQEQ3Ou68RMv4SvJSv_--KAJoIhjRW-OzO5v7pZj0sTzuBmFN2ZLVjOQkpo65iUGzE4OcobLDHDEKXtu1CibFZBQVBLI5N2IYEayCMGp4tDCr6AOcau7kBy0?></g></svg>