<svg xmlns="http://www.w3.org/2000/svg" xmlns:xlink="http://www.w3.org/1999/xlink" version="1.1" data-diagram-type="CLASS" style="width:1054px;height:1153px;background:#FFFFFF;" width="1054px" height="1153px" viewBox="0 0 1054 1153" zoomAndPan="magnify" preserveAspectRatio="none" contentStyleType="text/css"><?plantuml 1.2026.8?><defs/><g font-family="sans-serif" lengthAdjust="spacing"><g class="title" data-source-line="1"><text x="453.109" y="23.535" fill="#000" font-size="14" textLength="141.559" font-weight="700">Modèle du domaine</text></g><!--class Planet--><g class="entity" data-qualified-name="Planet" id="ent0001" data-source-line="7"><rect x="219.61" y="561.308" width="237.572" height="248.836" fill="#F1F1F1" style="stroke:#181818;stroke-width:0.5;" rx="2.5" ry="2.5"/><text x="317.776" y="579.843" fill="#000" font-size="14" textLength="41.241">Planet</text><line x1="220.61" y1="587.797" x2="456.182" y2="587.797" style="stroke:#181818;stroke-width:0.5;"/><text x="225.61" y="605.332" fill="#000" font-size="14" textLength="65.714">id : string</text><text x="225.61" y="621.82" fill="#000" font-size="14" textLength="90.146">name : string</text><text x="225.61" y="638.308" fill="#000" font-size="14" textLength="102.744">order : number</text><text x="225.61" y="654.797" fill="#000" font-size="14" textLength="116.471">type : PlanetType</text><text x="225.61" y="671.285" fill="#000" font-size="14" textLength="148.511">diameterKm : number</text><text x="225.61" y="687.773" fill="#000" font-size="14" textLength="119.021">massKg : number</text><text x="225.61" y="704.261" fill="#000" font-size="14" textLength="201.879">distanceFromSunAU : number</text><text x="225.61" y="720.75" fill="#000" font-size="14" textLength="185.671">orbitalPeriodDays : number</text><text x="225.61" y="737.238" fill="#000" font-size="14" textLength="203.109">rotationPeriodHours : number</text><text x="225.61" y="753.726" fill="#000" font-size="14" textLength="153.07">moonsCount : number</text><text x="225.61" y="770.215" fill="#000" font-size="14" textLength="128.577">hasRings : boolean</text><text x="225.61" y="786.703" fill="#000" font-size="14" textLength="225.572">avgTemperatureCelsius : number</text><text x="225.61" y="803.191" fill="#000" font-size="14" textLength="128.933">description : string</text></g><!--class Moon--><g class="entity" data-qualified-name="Moon" id="ent0002" data-source-line="23"><rect x="221.86" y="887.138" width="233.054" height="149.906" fill="#F1F1F1" style="stroke:#181818;stroke-width:0.5;" rx="2.5" ry="2.5"/><text x="319.414" y="905.673" fill="#000" font-size="14" textLength="37.946">Moon</text><line x1="222.86" y1="913.627" x2="453.914" y2="913.627" style="stroke:#181818;stroke-width:0.5;"/><text x="227.86" y="931.162" fill="#000" font-size="14" textLength="65.714">id : string</text><text x="227.86" y="947.65" fill="#000" font-size="14" textLength="90.146">name : string</text><text x="227.86" y="964.138" fill="#000" font-size="14" textLength="108.015">planetId : string</text><text x="227.86" y="980.627" fill="#000" font-size="14" textLength="148.511">diameterKm : number</text><text x="227.86" y="997.115" fill="#000" font-size="14" textLength="221.054">distanceFromPlanetKm : number</text><text x="227.86" y="1013.603" fill="#000" font-size="14" textLength="185.671">orbitalPeriodDays : number</text><text x="227.86" y="1030.091" fill="#000" font-size="14" textLength="128.933">description : string</text></g><!--class Mission--><g class="entity" data-qualified-name="Mission" id="ent0003" data-source-line="33"><rect x="488.05" y="334.398" width="180.684" height="149.906" fill="#F1F1F1" style="stroke:#181818;stroke-width:0.5;" rx="2.5" ry="2.5"/><text x="552.535" y="352.933" fill="#000" font-size="14" textLength="51.714">Mission</text><line x1="489.05" y1="360.887" x2="667.734" y2="360.887" style="stroke:#181818;stroke-width:0.5;"/><text x="494.05" y="378.422" fill="#000" font-size="14" textLength="65.714">id : string</text><text x="494.05" y="394.91" fill="#000" font-size="14" textLength="90.146">name : string</text><text x="494.05" y="411.398" fill="#000" font-size="14" textLength="110.086">agency : Agency</text><text x="494.05" y="427.887" fill="#000" font-size="14" textLength="168.684">launchDate : string | null</text><text x="494.05" y="444.375" fill="#000" font-size="14" textLength="147.738">status : MissionStatus</text><text x="494.05" y="460.863" fill="#000" font-size="14" textLength="111.412">planets : string[]</text><text x="494.05" y="477.351" fill="#000" font-size="14" textLength="128.933">description : string</text></g><!--class User--><g class="entity" data-qualified-name="User" id="ent0004" data-source-line="43"><rect x="707.67" y="44.488" width="163.443" height="100.441" fill="#F1F1F1" style="stroke:#181818;stroke-width:0.5;" rx="2.5" ry="2.5"/><text x="774.209" y="63.023" fill="#000" font-size="14" textLength="30.365">User</text><line x1="708.67" y1="70.977" x2="870.113" y2="70.977" style="stroke:#181818;stroke-width:0.5;"/><text x="713.67" y="88.512" fill="#000" font-size="14" textLength="60.067">id : UUID</text><text x="713.67" y="105" fill="#000" font-size="14" textLength="89.551">email : string</text><text x="713.67" y="121.488" fill="#000" font-size="14" textLength="99.128">role : UserRole</text><text x="713.67" y="137.977" fill="#000" font-size="14" textLength="151.443">passwordHash : string</text></g><!--class Participation--><g class="entity" data-qualified-name="Participation" id="ent0005" data-source-line="50"><rect x="513.18" y="205.938" width="130.426" height="67.465" fill="#F1F1F1" style="stroke:#181818;stroke-width:0.5;" rx="2.5" ry="2.5"/><text x="535.986" y="224.473" fill="#000" font-size="14" textLength="84.813">Participation</text><line x1="514.18" y1="232.427" x2="642.606" y2="232.427" style="stroke:#181818;stroke-width:0.5;"/><text x="519.18" y="249.962" fill="#000" font-size="14" textLength="89.407">userId : UUID</text><text x="519.18" y="266.45" fill="#000" font-size="14" textLength="118.426">missionId : string</text></g><!--class TravelEstimate--><g class="entity" data-qualified-name="TravelEstimate" id="ent0006" data-source-line="55"><rect x="111.13" y="343.818" width="210.522" height="131.063" fill="#F1F1F1" style="stroke:#181818;stroke-width:0.5;" rx="2.5" ry="2.5"/><text x="186.766" y="360.42" fill="#000" font-size="12" textLength="59.25" font-style="italic">«calculée»</text><text x="166.766" y="376.486" fill="#000" font-size="14" textLength="99.251">TravelEstimate</text><line x1="112.13" y1="384.439" x2="320.652" y2="384.439" style="stroke:#181818;stroke-width:0.5;"/><text x="117.13" y="401.975" fill="#000" font-size="14" textLength="198.522">speedKmPerSecond : number</text><text x="117.13" y="418.463" fill="#000" font-size="14" textLength="142.058">distanceAU : number</text><text x="117.13" y="434.951" fill="#000" font-size="14" textLength="144.908">distanceKm : number</text><text x="117.13" y="451.439" fill="#000" font-size="14" textLength="179.354">durationSeconds : number</text><text x="117.13" y="467.928" fill="#000" font-size="14" textLength="156.276">durationDays : number</text></g><!--class PlanetType--><g class="entity" data-qualified-name="PlanetType" id="ent0007" data-source-line="63"><rect x="106.38" y="920.118" width="80.02" height="83.953" fill="#F1F1F1" style="stroke:#181818;stroke-width:0.5;" rx="2.5" ry="2.5"/><text x="109.38" y="938.653" fill="#000" font-size="14" textLength="74.02">PlanetType</text><line x1="107.38" y1="946.607" x2="185.4" y2="946.607" style="stroke:#181818;stroke-width:0.5;"/><text x="112.38" y="964.142" fill="#000" font-size="14" textLength="66.22">terrestrial</text><text x="112.38" y="980.63" fill="#000" font-size="14" textLength="62.46">gas giant</text><text x="112.38" y="997.118" fill="#000" font-size="14" textLength="57.88">ice giant</text></g><!--class Agency--><g class="entity" data-qualified-name="Agency" id="ent0008" data-source-line="69"><rect x="662.71" y="627.258" width="55.362" height="116.93" fill="#F1F1F1" style="stroke:#181818;stroke-width:0.5;" rx="2.5" ry="2.5"/><text x="665.71" y="645.793" fill="#000" font-size="14" textLength="49.362">Agency</text><line x1="663.71" y1="653.747" x2="717.072" y2="653.747" style="stroke:#181818;stroke-width:0.5;"/><text x="668.71" y="671.282" fill="#000" font-size="14" textLength="37.201">NASA</text><text x="668.71" y="687.77" fill="#000" font-size="14" textLength="24.787">ESA</text><text x="668.71" y="704.258" fill="#000" font-size="14" textLength="32.437">JAXA</text><text x="668.71" y="720.747" fill="#000" font-size="14" textLength="31.302">ISRO</text><text x="668.71" y="737.235" fill="#000" font-size="14" textLength="37.229">CNSA</text></g><!--class MissionStatus--><g class="entity" data-qualified-name="MissionStatus" id="ent0009" data-source-line="77"><rect x="528.75" y="643.748" width="99.283" height="83.953" fill="#F1F1F1" style="stroke:#181818;stroke-width:0.5;" rx="2.5" ry="2.5"/><text x="531.75" y="662.283" fill="#000" font-size="14" textLength="93.283">MissionStatus</text><line x1="529.75" y1="670.237" x2="627.033" y2="670.237" style="stroke:#181818;stroke-width:0.5;"/><text x="534.75" y="687.772" fill="#000" font-size="14" textLength="54.578">planned</text><text x="534.75" y="704.26" fill="#000" font-size="14" textLength="39.231">active</text><text x="534.75" y="720.748" fill="#000" font-size="14" textLength="71.347">completed</text></g><!--class UserRole--><g class="entity" data-qualified-name="UserRole" id="ent0010" data-source-line="83"><rect x="963" y="214.178" width="76.777" height="50.977" fill="#F1F1F1" style="stroke:#181818;stroke-width:0.5;" rx="2.5" ry="2.5"/><text x="971.557" y="232.713" fill="#000" font-size="14" textLength="59.664">UserRole</text><line x1="964" y1="240.667" x2="1038.777" y2="240.667" style="stroke:#181818;stroke-width:0.5;"/><text x="969" y="258.202" fill="#000" font-size="14" textLength="64.777">astronaut</text></g><g class="entity" data-qualified-name="GMN20" id="ent0021" data-source-line="99"><path d="M257.78,1098.048 L257.78,1138.669 A0,0 0 0 0 257.78,1138.669 L419,1138.669 A0,0 0 0 0 419,1138.669 L419,1108.048 L409,1098.048 L342.39,1098.048 L338.39,1037.518 L334.39,1098.048 L257.78,1098.048 A0,0 0 0 0 257.78,1098.048" style="stroke:#181818;stroke-width:0.5;" fill="#FEFFDD"/><path d="M409,1098.048 L409,1108.048 L419,1108.048 L409,1098.048" style="stroke:#181818;stroke-width:0.5;" fill="#FEFFDD"/><text x="263.78" y="1115.617" fill="#000" font-size="13" textLength="140.22">Ressource imbriquée :</text><text x="263.78" y="1130.927" fill="#000" font-size="13" textLength="129.568">/planets/{id}/moons</text></g><g class="entity" data-qualified-name="GMN23" id="ent0024" data-source-line="104"><path d="M678.97,211.698 L678.97,235.668 L643.87,239.668 L678.97,243.668 L678.97,267.63 A0,0 0 0 0 678.97,267.63 L927.806,267.63 A0,0 0 0 0 927.806,267.63 L927.806,221.698 L917.806,211.698 L678.97,211.698 A0,0 0 0 0 678.97,211.698" style="stroke:#181818;stroke-width:0.5;" fill="#FEFFDD"/><path d="M917.806,211.698 L917.806,221.698 L927.806,221.698 L917.806,211.698" style="stroke:#181818;stroke-width:0.5;" fill="#FEFFDD"/><text x="684.97" y="229.267" fill="#000" font-size="13" textLength="214.113">Association plusieurs-à-plusieurs</text><text x="684.97" y="244.577" fill="#000" font-size="13" textLength="137.509">entre User et Mission.</text><text x="684.97" y="259.888" fill="#000" font-size="13" textLength="227.836">Filtre : /missions?participating=true</text></g><g class="entity" data-qualified-name="GMN26" id="ent0027" data-source-line="110"><path d="M489.88,918.818 L489.88,1005.371 A0,0 0 0 0 489.88,1005.371 L738.901,1005.371 A0,0 0 0 0 738.901,1005.371 L738.901,928.818 L728.901,918.818 L612.8,918.818 L583.82,728.098 L604.8,918.818 L489.88,918.818 A0,0 0 0 0 489.88,918.818" style="stroke:#181818;stroke-width:0.5;" fill="#FEFFDD"/><path d="M728.901,918.818 L728.901,928.818 L738.901,928.818 L728.901,918.818" style="stroke:#181818;stroke-width:0.5;" fill="#FEFFDD"/><text x="495.88" y="936.387" fill="#000" font-size="13" textLength="170.409">Cycle de vie à sens unique.</text><text x="495.88" y="951.697" fill="#000" font-size="13" textLength="228.021">Création : POST /missions (planned)</text><text x="495.88" y="967.008" fill="#000" font-size="13" textLength="179.924">Suite : PATCH /missions/{id}</text><text x="495.88" y="982.318" fill="#000" font-size="13" textLength="166.696">launchDate est renseignée</text><text x="495.88" y="997.629" fill="#000" font-size="13" textLength="122.338">au passage à active</text></g><g class="entity" data-qualified-name="GMN29" id="ent0030" data-source-line="118"><path d="M6,665.408 L6,706.029 A0,0 0 0 0 6,706.029 L184.784,706.029 A0,0 0 0 0 184.784,706.029 L184.784,675.408 L174.784,665.408 L108.11,665.408 L187.72,475.378 L100.11,665.408 L6,665.408 A0,0 0 0 0 6,665.408" style="stroke:#181818;stroke-width:0.5;" fill="#FEFFDD"/><path d="M174.784,665.408 L174.784,675.408 L184.784,675.408 L174.784,665.408" style="stroke:#181818;stroke-width:0.5;" fill="#FEFFDD"/><text x="12" y="682.977" fill="#000" font-size="13" textLength="157.784">Non stockée : résultat de</text><text x="12" y="698.287" fill="#000" font-size="13" textLength="152.528">POST /travel-estimation</text></g><!--reverse link Planet to Moon--><g class="link" data-entity-1="ent0001" data-entity-2="ent0002" id="lnk11" data-source-line="87" data-link-type="composition"><path d="M338.39,822.268 C338.39,848.438 338.39,863.278 338.39,886.928" style="stroke:#181818;stroke-width:1;" fill="none" id="Planet-backto-Moon" codeLine="87"/><polygon points="338.39,810.268,334.39,816.268,338.39,822.268,342.39,816.268,338.39,810.268" fill="#181818" style="stroke:#181818;stroke-width:1;stroke-linejoin:miter;stroke-miterlimit:10;"/><text x="339.39" y="853.707" fill="#000" font-size="13" textLength="52.089">possède</text><text x="330.153" y="830.892" fill="#000" font-size="13">1</text><text x="315.343" y="876.375" fill="#000" font-size="13" textLength="22.712">0..*</text></g><!--link Mission to Planet--><g class="link" data-entity-1="ent0003" data-entity-2="ent0001" id="lnk12" data-source-line="88" data-link-type="association"><path d="M513.44,484.598 C492.83,508.168 469.45,534.898 446.64,560.978" style="stroke:#181818;stroke-width:1;" fill="none" id="Mission-Planet" codeLine="88"/><text x="487.95" y="527.877" fill="#000" font-size="13" textLength="39.355">étudie</text><text x="484.471" y="504.809" fill="#000" font-size="13" textLength="22.712">0..*</text><text x="430.587" y="550.497" fill="#000" font-size="13" textLength="22.712">1..*</text></g><!--link User to Participation--><g class="link" data-entity-1="ent0004" data-entity-2="ent0005" id="lnk13" data-source-line="89" data-link-type="association"><path d="M716.19,145.308 C686.79,165.228 653.68,187.658 627.29,205.538" style="stroke:#181818;stroke-width:1;" fill="none" id="User-Participation" codeLine="89"/><text x="698.313" y="165.341" fill="#000" font-size="13">1</text><text x="612.582" y="195.2" fill="#000" font-size="13" textLength="22.712">0..*</text></g><!--link Participation to Mission--><g class="link" data-entity-1="ent0005" data-entity-2="ent0003" id="lnk14" data-source-line="90" data-link-type="association"><path d="M578.39,273.798 C578.39,291.068 578.39,312.948 578.39,334.018" style="stroke:#181818;stroke-width:1;" fill="none" id="Participation-Mission" codeLine="90"/><text x="554.427" y="294.07" fill="#000" font-size="13" textLength="22.712">0..*</text><text x="570.019" y="323.706" fill="#000" font-size="13">1</text></g><!--link TravelEstimate to Planet--><g class="link" data-entity-1="ent0006" data-entity-2="ent0001" id="lnk15" data-source-line="91" data-link-type="dependency"><path d="M245.3,475.378 C256.72,501.048 268.198,526.86 281.338,556.41" style="stroke:#181818;stroke-width:1;" fill="none" id="TravelEstimate-to-Planet" codeLine="91"/><polygon points="283.37,560.978,283.368,551.129,281.338,556.41,276.058,554.38,283.37,560.978" fill="#181818" style="stroke:#181818;stroke-width:1;stroke-linejoin:miter;stroke-miterlimit:10;"/><text x="271.09" y="527.877" fill="#000" font-size="13" textLength="51.295">from, to</text><text x="225.184" y="495.545" fill="#000" font-size="13" textLength="22.712">0..*</text><text x="271.78" y="550.497" fill="#000" font-size="13">2</text></g><!--link Planet to PlanetType--><g class="link" data-entity-1="ent0001" data-entity-2="ent0007" id="lnk16" data-source-line="93" data-link-type="dependency"><path d="M251.94,810.268 C224.37,849.658 198.607,886.482 178.127,915.742" style="stroke:#181818;stroke-width:1;stroke-dasharray:7,7;" fill="none" id="Planet-to-PlanetType" codeLine="93"/><polygon points="175.26,919.838,183.698,914.759,178.127,915.742,177.144,910.171,175.26,919.838" fill="#181818" style="stroke:#181818;stroke-width:1;stroke-linejoin:miter;stroke-miterlimit:10;"/></g><!--link Mission to Agency--><g class="link" data-entity-1="ent0003" data-entity-2="ent0008" id="lnk17" data-source-line="94" data-link-type="dependency"><path d="M612.63,484.788 C623.46,509.038 635.25,536.178 645.39,561.308 C653.97,582.558 661.055,601.444 668.555,622.254" style="stroke:#181818;stroke-width:1;stroke-dasharray:7,7;" fill="none" id="Mission-to-Agency" codeLine="94"/><polygon points="670.25,626.958,670.962,617.135,668.555,622.254,663.435,619.848,670.25,626.958" fill="#181818" style="stroke:#181818;stroke-width:1;stroke-linejoin:miter;stroke-miterlimit:10;"/></g><!--link Mission to MissionStatus--><g class="link" data-entity-1="ent0003" data-entity-2="ent0009" id="lnk18" data-source-line="95" data-link-type="dependency"><path d="M578.39,484.598 C578.39,535.698 578.39,596.678 578.39,638.608" style="stroke:#181818;stroke-width:1;stroke-dasharray:7,7;" fill="none" id="Mission-to-MissionStatus" codeLine="95"/><polygon points="578.39,643.608,582.39,634.608,578.39,638.608,574.39,634.608,578.39,643.608" fill="#181818" style="stroke:#181818;stroke-width:1;stroke-linejoin:miter;stroke-miterlimit:10;"/></g><!--link User to UserRole--><g class="link" data-entity-1="ent0004" data-entity-2="ent0010" id="lnk19" data-source-line="96" data-link-type="dependency"><path d="M862.94,145.308 C897.27,168.458 932.464,192.193 960.424,211.043" style="stroke:#181818;stroke-width:1;stroke-dasharray:7,7;" fill="none" id="User-to-UserRole" codeLine="96"/><polygon points="964.57,213.838,959.344,205.491,960.424,211.043,954.871,212.124,964.57,213.838" fill="#181818" style="stroke:#181818;stroke-width:1;stroke-linejoin:miter;stroke-miterlimit:10;"/></g><?plantuml-src ZLNDJXin4BxlKrWvjLKJQ8zHInK542a2eYH8bQeU77lOZF3QM_zGKTftwH6U8o_MiVSdkuWMBbbxVZ_FV3Fnw1MmCoEtz_ILWKbJSDIGPHkKm0HQeQ0w5-0tHhhCNQCkkUK54uexD_7UuZfuc0cZb_WJs7wM9GsRAwx1ixkCCPHip1nPwfnkcXVGlHihmP90Xs8DbWJ-jem6LO0LNKWcaRmysDEYQrbGejEyAv7eFDS2Zgqfba5FBhjAOzVekPg3HICF-QthAgtntAFHbVR41DjJ5yPeDpL1-wvqmzs2NX4jryOeu9g4_2PVGL62vJvOc89o67gn93XXiOpPTeNutHJkZ3Aze6nbAi-iP_DqbRergOhQr_-tBCzWHUVmHN1v3bhSacII3YHHF6YnEUH-PyT-KMAbI4c8VIfQdM6PxkspNUlozTkp82yTyQj5U7avEwGp4DDL5w2bzaKr6I_e65EHymzYvmbtcoV2phdrAB1Ch4dn0_dEEZcA2dktHwttol8RK4VEOn4hyE63u4e4jNs0WuCKp9K0yhIWhYo1Xai-rT4-lHlfe-u7cn1MKTnJgdxF2IBGiJD_2G_Hoa9y1O_zoRbZENBjOra5rEV6jUfnSZkVB2VqEKg_doTVucUsN5pGPtfEmiQbr-Va6JkjGKRk28ytiIF25AKYWilMhMbNyk04psWU4f1w_mpU3TYRuP0DzaUZDuDgkCQiDCvjxoLa3O5hTJHybqwr-vXj7toG25bYKOos2zPZGDRdGpVWe7bTzgZhhT416xplvBoYINtBl6bVCHeTTFTXWpgAwtdgYlepau17SKljJ1jAlZRUcuAPgrGKAjy2dAErHzt4OctnUo0oiZ4fzkgXsxj3-NilRKAglcGnJ1tCOhxnCLQ_9enDAAR0gYQb2Ww15kjm-sVONk8mQc-XcbDwR0r_H8fZL54pPdlrBBbFvIw1pZzw6-0nbix37YsFwQs8VtJ0RX3OzWzpe1qBcfuACTlKRXzulKJc5ylLBYjxLRFnDPaj0wQTDP-ifYSxcrIT_bwZUM6MSW3cceePAHhIMg5j6FFNnFud_ZvTuZGHDkUDk4wjOOJN1KMlepUHjiBiazCGAg_OXIR-Nm00?></g></svg>